<svg width="103" height="11" viewBox="0 0 103 11" fill="none" xmlns="http://www.w3.org/2000/svg">
<path d="M5.208 1.06H3.288L0.156 10H1.764L2.424 8.032H6.072L6.744 10H8.352L5.208 1.06ZM2.868 6.7L4.248 2.644L5.628 6.7H2.868ZM13.1008 10.144C14.9848 10.144 16.3768 9.064 16.8328 7.816L15.4888 7.168C15.1168 8.116 14.2648 8.776 13.1008 8.776C11.3608 8.776 10.1608 7.456 10.1608 5.524C10.1608 3.604 11.3608 2.284 13.1008 2.284C14.2648 2.284 15.1168 2.944 15.4888 3.892L16.8328 3.244C16.3768 1.996 14.9848 0.915999 13.1008 0.915999C10.5328 0.915999 8.64881 2.86 8.64881 5.524C8.64881 8.188 10.5448 10.144 13.1008 10.144ZM22.2532 10.144C24.1372 10.144 25.5292 9.064 25.9852 7.816L24.6412 7.168C24.2692 8.116 23.4172 8.776 22.2532 8.776C20.5132 8.776 19.3132 7.456 19.3132 5.524C19.3132 3.604 20.5132 2.284 22.2532 2.284C23.4172 2.284 24.2692 2.944 24.6412 3.892L25.9852 3.244C25.5292 1.996 24.1372 0.915999 22.2532 0.915999C19.6852 0.915999 17.8012 2.86 17.8012 5.524C17.8012 8.188 19.6972 10.144 22.2532 10.144ZM31.5855 10.144C34.2135 10.144 36.2295 8.176 36.2295 5.524C36.2295 2.872 34.2135 0.915999 31.5855 0.915999C28.9575 0.915999 26.9535 2.872 26.9535 5.524C26.9535 8.176 28.9695 10.144 31.5855 10.144ZM31.5855 8.752C29.7975 8.752 28.4655 7.372 28.4655 5.524C28.4655 3.688 29.7855 2.308 31.5855 2.308C33.3855 2.308 34.7055 3.688 34.7055 5.524C34.7055 7.372 33.3855 8.752 31.5855 8.752ZM42.99 1.06V6.832C42.99 7.972 42.186 8.776 41.046 8.776C39.894 8.776 39.09 7.984 39.09 6.832V1.06H37.566V6.832C37.566 8.752 38.946 10.144 41.046 10.144C43.134 10.144 44.526 8.752 44.526 6.832V1.06H42.99ZM51.7121 1.06V7.072L47.3441 1.06H46.1441V10H47.6561V3.928L52.0241 10H53.2361V1.06H51.7121ZM56.6512 10H58.1752V2.392H60.5032V1.06H54.3112V2.392H56.6512V10ZM63.6871 10H65.1991V6.664H67.1311C68.9551 6.664 70.2511 5.632 70.2511 3.868C70.2511 2.092 68.9671 1.06 67.1311 1.06H63.6871V10ZM65.1991 5.344V2.392H67.1311C68.0791 2.392 68.7151 2.98 68.7151 3.868C68.7151 4.756 68.0791 5.344 67.1311 5.344H65.1991ZM75.1455 1.06H73.2255L70.0935 10H71.7015L72.3615 8.032H76.0095L76.6815 10H78.2895L75.1455 1.06ZM72.8055 6.7L74.1855 2.644L75.5655 6.7H72.8055ZM83.1583 10.144C85.1983 10.144 86.6023 9.052 87.0343 7.6V5.116H83.1703V6.448H85.5703V7.48C85.2583 8.212 84.4063 8.776 83.1583 8.776C81.3103 8.776 80.0983 7.456 80.0983 5.524C80.0983 3.616 81.2983 2.284 83.0383 2.284C84.1783 2.284 85.0543 2.92 85.4263 3.892L86.7703 3.244C86.2783 1.924 84.8503 0.915999 83.0383 0.915999C80.4823 0.915999 78.5863 2.884 78.5863 5.524C78.5863 8.176 80.5183 10.144 83.1583 10.144ZM88.3082 10H94.2122L94.2242 8.668H89.8202V6.184H93.9842V4.852H89.8202V2.392H94.2242V1.06H88.3082V10ZM98.849 10.144C100.745 10.144 102.029 9.1 102.029 7.552C102.029 6.352 101.273 5.56 99.797 5.104L98.105 4.588C97.385 4.372 97.001 3.964 97.001 3.412C97.001 2.728 97.625 2.248 98.561 2.248C99.581 2.248 100.349 2.788 100.673 3.736L101.981 3.136C101.525 1.876 100.241 0.915999 98.549 0.915999C96.725 0.915999 95.477 1.96 95.477 3.484C95.477 4.636 96.197 5.524 97.673 5.968L99.425 6.508C100.133 6.724 100.505 7.048 100.505 7.66C100.505 8.32 99.857 8.812 98.849 8.812C97.829 8.812 96.905 8.2 96.485 7.084L95.189 7.672C95.645 9.112 97.085 10.144 98.849 10.144Z" fill="white"/>
</svg>
